<?xml version="1.0" encoding="UTF-8" standalone="no"?>
<!-- Created with Inkscape (http://www.inkscape.org/) -->

<svg
   xmlns:dc="http://purl.org/dc/elements/1.1/"
   xmlns:cc="http://creativecommons.org/ns#"
   xmlns:rdf="http://www.w3.org/1999/02/22-rdf-syntax-ns#"
   xmlns:svg="http://www.w3.org/2000/svg"
   xmlns="http://www.w3.org/2000/svg"
   xmlns:sodipodi="http://sodipodi.sourceforge.net/DTD/sodipodi-0.dtd"
   xmlns:inkscape="http://www.inkscape.org/namespaces/inkscape"
   width="210"
   height="219"
   viewBox="0 0 55.562499 57.943752"
   version="1.1"
   id="svg12175"
   inkscape:version="0.92.1 r15371"
   sodipodi:docname="me.svg">
  <defs
     id="defs12169">
    <filter
       inkscape:collect="always"
       style="color-interpolation-filters:sRGB"
       id="filter21366"
       x="-0.045734355"
       width="1.0914687"
       y="-0.016268645"
       height="1.0325373">
      <feGaussianBlur
         inkscape:collect="always"
         stdDeviation="0.23418573"
         id="feGaussianBlur21368" />
    </filter>
    <filter
       inkscape:collect="always"
       style="color-interpolation-filters:sRGB"
       id="filter21370"
       x="-0.043246064"
       width="1.0864921"
       y="-0.01660858"
       height="1.0332172">
      <feGaussianBlur
         inkscape:collect="always"
         stdDeviation="0.23815244"
         id="feGaussianBlur21372" />
    </filter>
  </defs>
  <sodipodi:namedview
     id="base"
     pagecolor="#ffffff"
     bordercolor="#666666"
     borderopacity="1.0"
     inkscape:pageopacity="0.0"
     inkscape:pageshadow="2"
     inkscape:zoom="1.2162237"
     inkscape:cx="36.343091"
     inkscape:cy="15.465639"
     inkscape:document-units="mm"
     inkscape:current-layer="g21302"
     showgrid="false"
     inkscape:window-width="1920"
     inkscape:window-height="1017"
     inkscape:window-x="-8"
     inkscape:window-y="-8"
     inkscape:window-maximized="1"
     inkscape:lockguides="false"
     showguides="true"
     inkscape:guide-bbox="true"
     objecttolerance="1"
     gridtolerance="1"
     guidetolerance="1"
     units="px" />
  <metadata
     id="metadata12172">
    <rdf:RDF>
      <cc:Work
         rdf:about="">
        <dc:format>image/svg+xml</dc:format>
        <dc:type
           rdf:resource="http://purl.org/dc/dcmitype/StillImage" />
        <dc:title></dc:title>
      </cc:Work>
    </rdf:RDF>
  </metadata>
  <g
     inkscape:label="Layer 1"
     inkscape:groupmode="layer"
     id="layer1"
     transform="translate(0,-239.05623)">
    <g
       id="g21302"
       transform="translate(-145.10325,-47.152546)">
      <circle
         style="opacity:1;fill:#9d9d9d;fill-opacity:0;stroke:none;stroke-width:0.16929343;stroke-linecap:butt;stroke-linejoin:miter;stroke-miterlimit:4;stroke-dasharray:none;stroke-dashoffset:15;stroke-opacity:0.26595746"
         id="circle16616"
         cx="172.88458"
         cy="316.35056"
         r="27.781124" />
      <path
         id="rect21260"
         transform="matrix(0.26458333,0,0,0.26458333,0,237.20415)"
         d="m 648.31836,194.31836 a 104.99952,104.99952 0 0 0 -99.89648,104.81836 104.99952,104.99952 0 0 0 105,104.99805 104.99952,104.99952 0 0 0 8.97656,-0.44922 104.99952,104.99952 0 0 0 5.10547,-0.6211 104.99952,104.99952 0 0 0 5.29882,-0.80273 104.99952,104.99952 0 0 0 4.9668,-1.11328 104.99952,104.99952 0 0 0 5.25,-1.3418 104.99952,104.99952 0 0 0 4.77735,-1.58789 104.99952,104.99952 0 0 0 5.13671,-1.875 104.99952,104.99952 0 0 0 4.55079,-2.03516 104.99952,104.99952 0 0 0 4.9746,-2.40429 104.99952,104.99952 0 0 0 7.54297,-4.32618 c -9.79543,-5.9007 -22.6102,-12.5053 -32.66601,-18.46679 -0.25474,-0.15118 -0.5046,-0.3015 -0.75586,-0.45117 -0.78705,-0.47074 -1.56003,-0.93903 -2.30664,-1.40039 -0.0473,-0.0302 -0.0985,-0.0592 -0.14649,-0.0879 0,0.003 8.1e-4,0.008 0.004,0.0117 0.14589,1.1808 0.16965,1.72481 0.64258,2.64063 1.77626,3.44458 4.39418,8.74802 3.03125,11.66211 -2.08415,4.45576 -3.98397,7.13417 -18.05274,6.84375 -2.79987,-0.0577 -6.80958,-1.34673 -11.43359,-3.35156 z"
         style="opacity:1;fill:#000000;fill-opacity:0.14220184;stroke:none;stroke-width:6.25511789;stroke-linecap:round;stroke-linejoin:bevel;stroke-miterlimit:4;stroke-dasharray:none;stroke-dashoffset:15;stroke-opacity:0.87378696"
         inkscape:connector-curvature="0" />
      <path
         inkscape:connector-curvature="0"
         style="fill:#fbefe0;fill-opacity:1;stroke:none;stroke-width:0.05924111px;stroke-linecap:butt;stroke-linejoin:miter;stroke-opacity:1"
         d="m 163.21417,319.03403 -0.70971,8.88773 -3.93624,3.7984 0.0123,0.0114 0.0511,0.0474 c 0.47259,-0.12733 12.2054,8.09466 15.92776,8.17148 3.72236,0.0767 4.2251,-0.63205 4.77654,-1.81096 0.36062,-0.77102 -0.33249,-2.17385 -0.80245,-3.08524 -0.12498,-0.24231 -0.1313,-0.38671 -0.16989,-0.69913 0,-8.4e-4 0,-0.002 -8.3e-4,-0.003 l 2.53905,-12.44061 z"
         id="path16620" />
      <path
         id="path16622"
         transform="matrix(0.26458333,0,0,0.26458333,0,237.20415)"
         d="m 598.89453,356.83789 -6.91406,2.66602 c 0,0 0.0304,0.35663 0.0859,0.72461 0.004,0.0302 0.0437,0.0305 0.0996,0.008 -4.25033,1.93811 -11.46141,5.63069 -17.17579,8.51367 a 104.99952,104.99952 0 0 0 78.43165,35.38477 104.99952,104.99952 0 0 0 56.58007,-16.55665 c -9.79543,-5.90072 -22.6102,-12.5053 -32.66601,-18.46679 -0.25474,-0.15118 -0.5046,-0.3015 -0.75586,-0.45117 -0.78705,-0.47074 -1.56003,-0.93903 -2.30664,-1.40039 -0.0473,-0.0302 -0.0985,-0.0592 -0.14649,-0.0879 0,0.003 8.1e-4,0.008 0.004,0.0117 0.14589,1.1808 0.16965,1.72481 0.64258,2.64063 1.77626,3.44458 4.39418,8.74802 3.03125,11.66211 -2.08415,4.45576 -3.98397,7.13417 -18.05274,6.84375 -14.06872,-0.28989 -58.41301,-31.36402 -60.19922,-30.88281 l -0.1914,-0.17969 z"
         style="fill:#000000;fill-opacity:0.10679614;stroke:none;stroke-width:0.2239034px;stroke-linecap:butt;stroke-linejoin:miter;stroke-opacity:1"
         inkscape:connector-curvature="0" />
      <path
         inkscape:connector-curvature="0"
         id="path16757"
         d="m 166.66328,326.94142 6.86256,11.01691 -3.19196,-8.01903 c -1.45006,-0.45678 -2.65949,-1.60446 -3.6706,-2.99788 z"
         style="fill:#000000;fill-opacity:0.04854369;stroke:none;stroke-width:0.25879291px;stroke-linecap:butt;stroke-linejoin:miter;stroke-opacity:1" />
      <path
         inkscape:connector-curvature="0"
         id="path16624"
         d="m 163.21432,319.17677 -0.0161,0.0563 -0.0695,0.87391 c 1.29104,2.76887 3.54581,9.04094 7.5975,9.9377 2.54155,0.56251 7.96886,-3.26688 9.56449,-5.13916 l 0.58298,-2.85583 z"
         style="opacity:1;fill:#433c33;fill-opacity:0.16019417;stroke:none;stroke-width:0.10860206;stroke-linecap:butt;stroke-linejoin:miter;stroke-miterlimit:4;stroke-dasharray:none;stroke-dashoffset:15;stroke-opacity:0.26595746" />
      <path
         style="opacity:1;fill:#fbefe0;fill-opacity:1;stroke:none;stroke-width:0.07161738;stroke-linecap:butt;stroke-linejoin:miter;stroke-miterlimit:4;stroke-dasharray:none;stroke-dashoffset:15;stroke-opacity:0.26595746"
         d="m 173.1466,292.93549 c -6.16505,0 -11.58043,4.14863 -11.7132,10.78536 -0.005,0.29473 0.0149,4.59685 0.0186,5.57643 -0.32974,-0.23664 -0.61035,-0.87389 -1.09896,-0.61464 -1.08957,0.57811 -1.07768,1.87827 -0.79058,2.6257 l 1.79301,4.66758 c 0.1574,0.40971 0.96335,0.77544 1.22039,0.75218 0.0463,0.2412 0.0827,0.42424 0.10489,0.52634 1.15087,5.28319 5.55568,10.25681 11.18384,10.25681 5.71969,0 8.92922,-4.98363 9.98064,-10.39588 0.0128,-0.0659 0.039,-0.21466 0.064,-0.35648 0.47213,-0.12308 0.97573,-0.30888 1.18679,-0.64865 0.19165,-0.30853 1.10034,-3.82008 1.25036,-5.04122 0.083,-0.67481 0.18751,-2.28986 -0.44459,-2.31939 -0.39789,-0.0186 -0.75869,0.17895 -0.95017,0.37015 -0.0167,-1.47127 -0.0765,-5.44252 -0.13559,-5.83572 -1.23243,-8.22257 -5.65384,-10.34857 -11.66948,-10.34857 z"
         id="path16626"
         inkscape:connector-curvature="0"
         sodipodi:nodetypes="sccsssccsccsssccss" />
      <path
         inkscape:connector-curvature="0"
         id="path16752"
         d="m 171.99289,292.98451 c -5.67192,0.48305 -10.43504,4.51723 -10.55945,10.73637 -0.006,0.29473 0.015,4.5966 0.0187,5.57617 -0.26975,-0.19357 -0.50697,-0.65456 -0.85168,-0.67427 8.5e-4,0.20283 0.002,0.55625 0.002,0.67478 -0.15877,-0.11393 -0.30643,-0.31973 -0.47108,-0.47464 -0.86298,0.62769 -0.83511,1.793 -0.56915,2.48533 l 1.79335,4.66788 c 0.15738,0.40972 0.96314,0.77539 1.22017,0.75212 0.0463,0.2412 0.083,0.42408 0.10513,0.52618 1.0505,4.82248 4.81262,9.38455 9.74113,10.14397 0.32487,-0.90404 0.33262,-3.28479 -0.72937,-5.71162 -1.75661,-4.01416 -2.30448,-8.22736 -1.70136,-11.19837 0.4986,-2.45605 1.18055,-4.98636 0.90577,-6.86155 -0.37337,-2.54816 -0.74371,-3.31901 -0.67984,-5.55041 0.07,-2.44222 1.31698,-2.96475 1.77567,-5.09194 z"
         style="fill:#000000;fill-opacity:0.01941748;stroke:none;stroke-width:0.34756157px;stroke-linecap:butt;stroke-linejoin:miter;stroke-opacity:1;filter:url(#filter21370)" />
      <path
         style="fill:#2f2f2f;fill-opacity:1;stroke:none;stroke-width:0.05924111px;stroke-linecap:butt;stroke-linejoin:miter;stroke-opacity:1"
         d="m 162.08368,310.35511 c -0.50232,-4.96055 -0.0196,-9.07321 1.56074,-12.74336 0.40991,-0.82448 2.97628,-2.73432 4.60788,-3.41103 1.03782,-0.45542 8.50578,-0.45106 9.45514,-0.23938 1.13871,0.13931 4.42352,2.18166 4.7874,3.2315 1.94456,3.94243 1.82634,9.38749 1.8972,13.78688 l 0.50603,-1.32457 c 0.16502,-1.9839 0.39525,-2.63719 0.48674,-7.67066 -0.40799,-2.30292 -0.96873,-4.24686 -1.56617,-5.79021 -0.25863,-2.70419 -0.91468,-5.09745 -2.22145,-6.42192 -2.46543,-2.49883 -10.14636,-4.30187 -16.38871,-3.22438 0.85456,1.6246 1.66239,2.33143 -0.009,3.97243 -1.83057,2.25672 -3.29356,4.09837 -3.56348,5.31462 -0.66858,2.49769 -1.24068,6.9107 -1.07851,8.78442 0.16441,1.89993 0.57326,3.19364 0.89406,4.67783 z"
         id="path16628"
         inkscape:connector-curvature="0"
         sodipodi:nodetypes="cccccccccscccscc" />
      <path
         style="fill:#433c33;fill-opacity:0.25242722;stroke:none;stroke-width:0.04692989px;stroke-linecap:butt;stroke-linejoin:miter;stroke-opacity:1"
         d="m 176.45181,311.88762 c -0.97086,0.0929 -1.75586,0.68585 -2.70648,0.42834 -0.62652,-0.1697 -1.53512,-0.48084 -2.29489,-0.66537 0.45423,0.63686 0.9556,1.65306 2.34661,1.6118 1.19381,0.007 2.11384,-0.85422 2.65476,-1.37477 z"
         id="path16630"
         inkscape:connector-curvature="0"
         sodipodi:nodetypes="csccc" />
      <path
         style="fill:#3c3934;fill-opacity:0.32524276;stroke:none;stroke-width:0.05924111px;stroke-linecap:butt;stroke-linejoin:miter;stroke-opacity:0.72340423"
         d="m 168.81428,317.4327 c 0.25292,-0.0817 0.63013,0.29351 1.11905,0.37274 1.42202,0.23045 1.04857,-0.38102 3.23421,-0.20218 0.34913,0.0286 2.29853,-0.019 2.62228,-0.0484 1.47026,-0.1327 1.55147,0.18179 2.67327,0.0147 0.41004,-0.0611 0.56563,-0.34172 0.97937,-0.28845 -0.32431,-0.15164 -0.56175,-0.11516 -1.09931,-0.0193 -0.79998,0.14236 -1.35867,-0.21801 -2.52611,-0.14799 -0.50472,0.0303 -2.03756,0.1304 -2.61988,0.0556 -1.72231,-0.22111 -2.27683,0.35048 -3.01446,0.34072 -0.43058,-0.0133 -1.1299,-0.35156 -1.36842,-0.0773 z"
         id="path16632"
         inkscape:connector-curvature="0"
         sodipodi:nodetypes="csssscsssccc" />
      <path
         style="fill:#433c33;fill-opacity:0.06310682;stroke:none;stroke-width:0.07337079px;stroke-linecap:butt;stroke-linejoin:miter;stroke-opacity:1"
         d="m 168.29358,317.97579 c 2.06851,2.41877 5.58345,1.4989 8.19114,1.00398 -3.70701,0.27214 -5.59999,0.18551 -8.19114,-1.00398 z"
         id="path16634"
         inkscape:connector-curvature="0"
         sodipodi:nodetypes="ccc" />
      <path
         style="fill:#3b3b3b;fill-opacity:0.05339806;stroke:none;stroke-width:0.05924111px;stroke-linecap:butt;stroke-linejoin:miter;stroke-opacity:1"
         d="m 162.50444,327.92186 -3.94486,3.8067 c 0.99263,0.74716 2.79757,1.78707 4.82839,2.90433 -0.57547,-2.1246 -1.06425,-4.28395 -0.88353,-6.71103 z"
         id="path16636"
         inkscape:connector-curvature="0" />
      <path
         inkscape:connector-curvature="0"
         style="fill:#3b3b3b;fill-opacity:0.0776699;stroke:none;stroke-width:0.0761276px;stroke-linecap:butt;stroke-linejoin:miter;stroke-opacity:1"
         d="m 177.98206,335.11387 c -0.43974,1.71436 -0.80082,3.41221 -0.82548,4.95584 0.205,-0.0344 0.38144,-0.0798 0.51957,-0.13865 0.0839,-0.0357 0.16408,-0.0731 0.24221,-0.11137 -0.20818,-1.31734 -0.0898,-2.51633 0.0638,-4.70582 z"
         id="path16638" />
      <path
         id="path16668"
         d="m 165.21526,286.56024 c 0.1036,0.19641 0.20659,0.37958 0.30428,0.55246 7.7e-4,0.002 0.002,0.003 0.003,0.005 0.041,0.0727 0.0844,0.14953 0.12281,0.21836 0.001,0.002 0.003,0.005 0.004,0.008 l 5.1e-4,5.2e-4 c 0.002,0.003 0.003,0.007 0.006,0.0106 0.0176,0.0314 0.0316,0.0597 0.0486,0.0904 0.0518,0.0937 0.10421,0.18955 0.14963,0.27852 0.008,0.0152 0.0157,0.031 0.0232,0.046 0.059,0.11788 0.11215,0.23309 0.15568,0.34572 0.0148,0.0384 0.0273,0.0766 0.0399,0.11474 0.0153,0.0458 0.0295,0.0914 0.0414,0.13698 0.0121,0.0457 0.0233,0.0918 0.0319,0.13749 0.005,0.0263 0.007,0.053 0.0112,0.0793 0.006,0.0417 0.0104,0.0835 0.0126,0.12535 0.002,0.0267 0.002,0.0539 0.002,0.081 -6e-5,0.0427 -0.003,0.0857 -0.006,0.12888 -0.002,0.0266 -0.005,0.0535 -0.008,0.0803 -0.007,0.0492 -0.0181,0.0991 -0.0309,0.14912 -0.005,0.0203 -0.008,0.0402 -0.0146,0.0607 -0.0208,0.0701 -0.0471,0.14118 -0.0794,0.21381 -0.009,0.0201 -0.021,0.0409 -0.0309,0.0613 -0.0278,0.0572 -0.0583,0.11552 -0.0935,0.17488 -0.0131,0.0219 -0.0279,0.0444 -0.0419,0.0667 -0.0363,0.0572 -0.0761,0.11537 -0.11979,0.17488 -0.02,0.0272 -0.0401,0.0547 -0.0616,0.0825 -0.049,0.0632 -0.10314,0.12812 -0.16073,0.1941 -0.0184,0.021 -0.0353,0.0413 -0.0546,0.0627 -0.0817,0.0906 -0.1699,0.18327 -0.26841,0.28002 -9e-5,9e-5 9e-5,4.1e-4 0,5.2e-4 -0.45754,0.56406 -0.89221,1.10197 -1.29093,1.61088 -8e-5,10e-5 7e-5,4.1e-4 0,5.2e-4 -0.19931,0.2544 -0.38987,0.50112 -0.56965,0.7405 -7e-5,10e-5 8e-5,4.1e-4 0,5.1e-4 -0.35958,0.47884 -0.67701,0.92662 -0.93913,1.34047 -7e-5,1.1e-4 8e-5,3.9e-4 0,5.2e-4 -0.13098,0.20682 -0.24848,0.40506 -0.35028,0.59441 -6e-5,1.2e-4 6e-5,3.9e-4 0,5.2e-4 -0.0509,0.0946 -0.0981,0.18691 -0.14102,0.27699 -6e-5,1.3e-4 6e-5,3.6e-4 0,5.2e-4 -0.0429,0.09 -0.0822,0.17789 -0.11677,0.26333 -5e-5,1.4e-4 6e-5,3.6e-4 0,5.1e-4 -0.0346,0.0854 -0.0651,0.16849 -0.091,0.2492 -6e-5,1.5e-4 4e-5,3.7e-4 0,5.2e-4 -0.0259,0.0806 -0.0479,0.15866 -0.0647,0.23453 -6e-5,3.1e-4 7e-5,6.9e-4 0,0.001 -0.0318,0.11862 -0.0617,0.2599 -0.093,0.38668 -0.0508,0.20583 -0.10221,0.40372 -0.15113,0.62777 -0.016,0.0735 -0.0302,0.1563 -0.046,0.2315 -0.0615,0.29245 -0.12275,0.58886 -0.17995,0.90122 -0.0554,0.30294 -0.10642,0.61674 -0.15668,0.93055 -0.0144,0.0896 -0.0306,0.17576 -0.0445,0.26586 -0.045,0.29249 -0.0845,0.58648 -0.12383,0.87999 -0.0161,0.11967 -0.0345,0.23978 -0.0496,0.35888 -0.007,0.092 -0.0181,0.18394 -0.0319,0.27548 -0.1868,1.56236 -0.27937,3.03386 -0.20218,3.92587 0.16441,1.89992 0.57334,3.1933 0.89414,4.67748 l 0.31238,0.52314 v 5.3e-4 l 0.30327,0.35432 c -0.39542,-4.08432 -0.11512,-7.59258 0.90173,-10.75355 0.009,-0.0316 0.0176,-0.0638 0.0279,-0.095 0.21477,-0.72683 0.45057,-1.43625 0.7041,-2.12442 0.24418,-0.49115 1.36514,-2.56353 1.90303,-3.75403 1.36522,-3.61381 1.14533,-4.54683 -0.38868,-6.88784 z"
         style="fill:#171717;fill-opacity:0.43203885;stroke:none;stroke-width:0.05705417px;stroke-linecap:butt;stroke-linejoin:miter;stroke-opacity:1"
         inkscape:connector-curvature="0" />
      <path
         style="fill:#171717;fill-opacity:0.43203885;stroke:none;stroke-width:0.05890928px;stroke-linecap:butt;stroke-linejoin:miter;stroke-opacity:1"
         d="m 183.8094,296.10765 c 0.0311,0.86538 -0.34841,1.85188 -0.57621,2.64701 0,0 -0.0107,0.22768 -0.0118,0.25382 1.18711,3.69506 1.11009,8.21435 1.17058,11.97124 l 0.50604,-1.32455 c 0.16503,-1.98389 0.3952,-2.63717 0.4867,-7.67063 -0.40801,-2.30295 -0.96874,-4.24691 -1.56616,-5.79026 -0.003,-0.0291 -0.007,-0.0575 -0.0102,-0.0867 z"
         id="path16670"
         inkscape:connector-curvature="0" />
      <path
         style="fill:#000000;fill-opacity:0.12621358;stroke:none;stroke-width:0.05762597px;stroke-linecap:butt;stroke-linejoin:miter;stroke-opacity:1"
         d="m 158.45758,331.61764 -1.82884,0.70508 c 0,0 0.008,0.0948 0.0223,0.19215 9.8e-4,0.008 0.0118,0.007 0.0266,0.002 0.042,-0.0124 0.12126,-0.056 0.1421,-0.0389 0.68269,0.56496 2.89257,2.37393 4.20374,3.17672 4.05233,2.4812 9.01597,5.64644 12.83556,6.20078 3.81955,0.55435 7.14449,-1.26305 7.31693,-3.09125 0.13129,-1.39203 -1.24069,-3.11799 -1.90386,-3.86373 -0.31361,-0.18543 -0.61834,-0.3688 -0.90917,-0.54895 0.039,0.31486 0.0449,0.45887 0.1703,0.70209 0.46996,0.91139 1.16314,2.31423 0.80251,3.08525 -0.55144,1.17892 -1.05413,1.88796 -4.77648,1.81112 -3.72237,-0.0767 -15.45523,-8.29891 -15.92784,-8.17159 l -0.0512,-0.0475 z"
         id="path16672"
         inkscape:connector-curvature="0"
         sodipodi:nodetypes="ccccccssccscsccc" />
      <path
         inkscape:connector-curvature="0"
         id="path16785"
         d="m 173.94395,293.21853 c -6.04193,0.12994 -11.28858,4.24859 -11.41924,10.77933 -0.006,0.29472 0.015,4.5971 0.0187,5.57668 -0.0941,-0.0675 -0.18447,-0.16732 -0.27649,-0.26992 0.0463,0.2218 2.1958,10.5187 2.37868,10.88448 0,0 -0.005,0.005 -0.005,0.005 1.74556,3.98875 5.31032,7.28315 9.69008,7.57222 0.35671,-0.83058 0.40034,-3.29448 -0.69701,-5.80212 -1.75662,-4.01415 -2.30449,-8.22682 -1.70137,-11.19785 0.49858,-2.45603 1.18056,-4.98635 0.90577,-6.86155 -0.37339,-2.54814 -0.7437,-3.31899 -0.67984,-5.5504 0.0705,-2.45925 1.33505,-2.97065 1.78578,-5.13542 z"
         style="fill:#000000;fill-opacity:0.01176471;stroke:none;stroke-width:0.34756157px;stroke-linecap:butt;stroke-linejoin:miter;stroke-opacity:1;filter:url(#filter21366)" />
      <path
         sodipodi:nodetypes="ccsccc"
         inkscape:connector-curvature="0"
         id="path16640"
         d="m 174.52727,303.29691 c 1.96026,0.15131 4.76691,-0.20433 6.26611,0.53894 0.50164,0.17176 1.67437,0.75664 1.69412,0.54538 0.0254,-0.27332 -0.67283,-1.64685 -1.29403,-1.98867 -0.53885,-0.31701 -3.19581,-1.06351 -5.9481,-0.41218 -0.47054,0.40742 -0.63953,0.85283 -0.7181,1.31653 z"
         style="fill:#2f2f2f;fill-opacity:1;stroke:none;stroke-width:0.05924111px;stroke-linecap:butt;stroke-linejoin:miter;stroke-opacity:1" />
      <path
         sodipodi:nodetypes="ccsscc"
         inkscape:connector-curvature="0"
         id="path16642"
         d="m 180.98234,306.27268 c -1.43904,-1.23763 -3.23032,-1.98479 -4.77131,-0.35997 0.5206,-0.0246 0.78541,0.0271 1.18766,0.10492 0.61493,0.11898 0.98838,0.19487 1.63141,0.30384 0.66788,0.11315 1.24503,-0.10907 1.95224,-0.0489 z"
         style="fill:#ffffff;fill-opacity:0.76063831;stroke:none;stroke-width:0.05924111px;stroke-linecap:butt;stroke-linejoin:miter;stroke-opacity:1" />
      <path
         style="fill:#353026;fill-opacity:0.36238535;stroke:none;stroke-width:0.06503039px;stroke-linecap:butt;stroke-linejoin:miter;stroke-opacity:1"
         d="m 177.63507,304.28203 c 1.01399,-0.15553 2.55334,0.2138 3.15464,1.08828 -1.17321,-0.75397 -2.38563,-0.85257 -2.8618,-0.81445 -0.37953,0.0305 -1.19081,0.19765 -1.57618,0.58341 0.32634,-0.46349 0.60494,-0.66476 1.28334,-0.85724 z"
         id="path16644"
         inkscape:connector-curvature="0"
         sodipodi:nodetypes="ccscc" />
      <path
         inkscape:connector-curvature="0"
         id="path16646"
         d="m 178.17198,304.9785 c -0.23718,9.8e-4 -0.47418,0.0368 -0.70934,0.11027 a 1.0225301,1.0225301 0 0 0 -0.11614,0.47148 1.0225301,1.0225301 0 0 0 0.11626,0.47254 c 0.57583,0.11672 0.94125,0.25464 1.56964,0.29093 0.004,2.1e-4 0.0102,2.1e-4 0.0143,3.3e-4 a 1.0225301,1.0225301 0 0 0 0.34486,-0.76403 1.0225301,1.0225301 0 0 0 -0.0603,-0.34289 c -0.38149,-0.15242 -0.77053,-0.24078 -1.15932,-0.23886 z"
         style="opacity:1;fill:#2f2f2f;fill-opacity:1;stroke:none;stroke-width:0.36973801;stroke-linecap:round;stroke-linejoin:bevel;stroke-miterlimit:4;stroke-dasharray:none;stroke-dashoffset:15;stroke-opacity:0.87378696" />
      <path
         style="fill:#000000;fill-opacity:0.03398061;stroke:none;stroke-width:0.06079597px;stroke-linecap:butt;stroke-linejoin:miter;stroke-opacity:1"
         d="m 180.33365,307.23078 c -1.11821,0.0453 -2.46815,-0.084 -4.60548,-0.78465 0.13313,0.15994 0.31417,0.35668 0.5421,0.47666 0.98983,0.25552 2.16085,0.65912 3.41819,0.65494 0.2271,-7e-4 0.64519,-0.34695 0.64519,-0.34695 z"
         id="path16648"
         inkscape:connector-curvature="0"
         sodipodi:nodetypes="cccsc" />
      <path
         sodipodi:nodetypes="ccccc"
         inkscape:connector-curvature="0"
         id="path16650"
         d="m 179.56379,306.35483 c 0.39384,-7.1e-4 0.99003,0.0128 1.41855,-0.0822 -0.91049,-1.27843 -2.40233,-1.69657 -3.83568,-1.06858 1.28055,-0.33948 2.9559,-0.0218 3.28886,0.94064 0.069,0.0937 -0.69449,0.18546 -0.87173,0.21013 z"
         style="fill:#000000;fill-opacity:1;stroke:none;stroke-width:0.05890928px;stroke-linecap:butt;stroke-linejoin:miter;stroke-opacity:1" />
      <path
         style="fill:#2f2f2f;fill-opacity:1;stroke:none;stroke-width:0.05924111px;stroke-linecap:butt;stroke-linejoin:miter;stroke-opacity:1"
         d="m 171.83188,303.2149 c -1.96025,0.15131 -4.05048,-0.18595 -5.54966,0.55735 -0.50164,0.17177 -2.4621,1.14478 -2.48186,0.93354 -0.0255,-0.27335 1.05709,-2.00571 1.67828,-2.34752 0.53884,-0.31702 2.94596,-1.15329 5.69825,-0.50198 0.47053,0.40742 0.57642,0.89492 0.65499,1.35861 z"
         id="path16652"
         inkscape:connector-curvature="0"
         sodipodi:nodetypes="ccsccc" />
      <path
         sodipodi:nodetypes="ccsscc"
         inkscape:connector-curvature="0"
         id="path16654"
         d="m 165.38052,306.47323 c 1.03414,-1.41956 3.55226,-1.82588 4.83133,-0.27867 -0.5206,-0.0246 -0.95372,0.0114 -1.35596,0.0891 -0.61493,0.11897 -1.15912,0.22939 -1.81026,0.26701 -0.68912,0.0398 -1.03087,-0.25351 -1.66511,-0.0774 z"
         style="fill:#ffffff;fill-opacity:0.76063831;stroke:none;stroke-width:0.05924111px;stroke-linecap:butt;stroke-linejoin:miter;stroke-opacity:1" />
      <path
         style="fill:#353026;fill-opacity:0.36238535;stroke:none;stroke-width:0.06503039px;stroke-linecap:butt;stroke-linejoin:miter;stroke-opacity:1"
         d="m 168.06831,304.34398 c -0.919,0.0208 -2.18954,0.5425 -2.74622,1.28639 0.73193,-0.84325 3.2212,-1.4735 4.7859,-0.55079 -0.5303,-0.61749 -1.40521,-0.75006 -2.03968,-0.7356 z"
         id="path16656"
         inkscape:connector-curvature="0"
         sodipodi:nodetypes="cccc" />
      <path
         id="path16658"
         d="m 168.04958,305.20689 c -0.46051,-0.004 -0.92398,0.0874 -1.3479,0.26108 a 1.0041869,1.0041869 0 0 0 -0.0762,0.38268 1.0041869,1.0041869 0 0 0 0.28811,0.70369 c 0.0426,4e-5 0.0865,-9.8e-4 0.13197,-0.003 0.52205,-0.0302 0.9768,-0.1077 1.45294,-0.19835 a 1.0041869,1.0041869 0 0 0 0.13543,-0.50164 1.0041869,1.0041869 0 0 0 -0.21332,-0.61821 c -0.12294,-0.0154 -0.24684,-0.0243 -0.37106,-0.0254 z"
         style="opacity:1;fill:#2f2f2f;fill-opacity:1;stroke:none;stroke-width:0.35532445;stroke-linecap:round;stroke-linejoin:bevel;stroke-miterlimit:4;stroke-dasharray:none;stroke-dashoffset:15;stroke-opacity:0.87378696"
         inkscape:connector-curvature="0" />
      <circle
         cy="305.81873"
         cx="167.60487"
         id="circle16660"
         style="opacity:1;fill:#000000;fill-opacity:1;stroke:none;stroke-width:0.21369535;stroke-linecap:round;stroke-linejoin:bevel;stroke-miterlimit:4;stroke-dasharray:none;stroke-dashoffset:15;stroke-opacity:1"
         r="0.42405155" />
      <circle
         r="0.28524715"
         style="opacity:1;fill:#e0d5c7;fill-opacity:1;stroke:none;stroke-width:0.14374663;stroke-linecap:round;stroke-linejoin:bevel;stroke-miterlimit:4;stroke-dasharray:none;stroke-dashoffset:15;stroke-opacity:1"
         id="circle16662"
         cx="168.03392"
         cy="305.62949" />
      <path
         style="fill:#000000;fill-opacity:0.03398061;stroke:none;stroke-width:0.05924111px;stroke-linecap:butt;stroke-linejoin:miter;stroke-opacity:1"
         d="m 166.09964,307.1867 c 1.2908,0.0215 2.65367,0.30646 4.80192,-0.71593 -0.16401,0.12485 -0.41564,0.5307 -0.688,0.61943 -1.44429,0.44586 -1.9152,0.45488 -3.38086,0.40319 -0.26472,-0.0102 -0.73306,-0.30669 -0.73306,-0.30669 z"
         id="path16664"
         inkscape:connector-curvature="0"
         sodipodi:nodetypes="cccscc" />
      <path
         sodipodi:nodetypes="csccc"
         inkscape:connector-curvature="0"
         id="path16666"
         d="m 165.87474,306.27481 c 0.0671,0.10789 0.55962,0.21705 0.52528,0.23367 -0.0736,0.0356 -0.54412,0.0743 -1.09958,-0.009 1.17585,-2.03733 3.46546,-1.42195 4.08782,-0.98276 -1.49261,-0.56237 -3.0304,-0.24887 -3.51352,0.75741 z"
         style="fill:#000000;fill-opacity:1;stroke:none;stroke-width:0.05890928px;stroke-linecap:butt;stroke-linejoin:miter;stroke-opacity:1" />
      <circle
         r="0.44189695"
         style="opacity:1;fill:#000000;fill-opacity:1;stroke:none;stroke-width:0.2226883;stroke-linecap:round;stroke-linejoin:bevel;stroke-miterlimit:4;stroke-dasharray:none;stroke-dashoffset:15;stroke-opacity:1"
         id="circle16676"
         cx="178.38348"
         cy="305.55103" />
      <circle
         cy="305.46884"
         cx="178.81255"
         id="circle16678"
         style="opacity:1;fill:#e0d5c7;fill-opacity:1;stroke:none;stroke-width:0.14374663;stroke-linecap:round;stroke-linejoin:bevel;stroke-miterlimit:4;stroke-dasharray:none;stroke-dashoffset:15;stroke-opacity:1"
         r="0.28524715" />
    </g>
  </g>
</svg>
